<svg width="212" height="181" viewBox="0 0 212 181" fill="none" xmlns="http://www.w3.org/2000/svg">
<g id="Union">
<mask id="path-1-outside-1_26_1246" maskUnits="userSpaceOnUse" x="-19.5068" y="-12.6384" width="249.982" height="206.848" fill="black">
<rect fill="white" x="-19.5068" y="-12.6384" width="249.982" height="206.848"/>
<path fill-rule="evenodd" clip-rule="evenodd" d="M170.681 156.415C173.51 145.857 185.242 140.188 194.912 135.095C201.325 131.717 206.365 125.777 208.389 118.223C210.413 110.67 209.018 103.005 205.153 96.8735C199.325 87.6274 192 76.8517 194.828 66.2946L195.523 63.7008C199.316 49.546 190.916 34.9965 176.761 31.2038C162.653 27.4235 148.153 35.756 144.302 49.8264C148.002 35.7156 139.611 21.249 125.503 17.4687C111.348 13.6759 96.7984 22.0761 93.0056 36.2309L87.2117 57.8538C87.2116 57.8544 87.211 57.8548 87.2104 57.8546V57.8546C87.2098 57.8545 87.2094 57.8539 87.2096 57.8533L93.0032 36.2314C96.796 22.0765 88.3958 7.52709 74.241 3.73431C60.0861 -0.0584759 45.5367 8.34168 41.7439 22.4965L41.0469 25.0977C38.219 35.6517 26.493 41.3207 16.8263 46.4137C10.4144 49.7919 5.37559 55.7313 3.35192 63.2838C1.32823 70.8363 2.72232 78.4994 6.58608 84.6309C12.4111 93.8749 19.7316 104.647 16.9037 115.201L16.2056 117.807C12.4128 131.962 20.8129 146.511 34.9678 150.304C49.1226 154.097 63.6721 145.696 67.4649 131.542L73.2595 109.916C73.2597 109.915 73.2603 109.915 73.2609 109.915V109.915C73.2615 109.915 73.2618 109.916 73.2617 109.916L67.4673 131.541C63.6745 145.696 72.0746 160.245 86.2295 164.038C100.338 167.819 114.838 159.486 118.689 145.416C114.988 159.526 123.38 173.993 137.488 177.773C151.643 181.566 166.192 173.166 169.985 159.011L170.681 156.415Z"/>
</mask>
<path fill-rule="evenodd" clip-rule="evenodd" d="M170.681 156.415C173.51 145.857 185.242 140.188 194.912 135.095C201.325 131.717 206.365 125.777 208.389 118.223C210.413 110.67 209.018 103.005 205.153 96.8735C199.325 87.6274 192 76.8517 194.828 66.2946L195.523 63.7008C199.316 49.546 190.916 34.9965 176.761 31.2038C162.653 27.4235 148.153 35.756 144.302 49.8264C148.002 35.7156 139.611 21.249 125.503 17.4687C111.348 13.6759 96.7984 22.0761 93.0056 36.2309L87.2117 57.8538C87.2116 57.8544 87.211 57.8548 87.2104 57.8546V57.8546C87.2098 57.8545 87.2094 57.8539 87.2096 57.8533L93.0032 36.2314C96.796 22.0765 88.3958 7.52709 74.241 3.73431C60.0861 -0.0584759 45.5367 8.34168 41.7439 22.4965L41.0469 25.0977C38.219 35.6517 26.493 41.3207 16.8263 46.4137C10.4144 49.7919 5.37559 55.7313 3.35192 63.2838C1.32823 70.8363 2.72232 78.4994 6.58608 84.6309C12.4111 93.8749 19.7316 104.647 16.9037 115.201L16.2056 117.807C12.4128 131.962 20.8129 146.511 34.9678 150.304C49.1226 154.097 63.6721 145.696 67.4649 131.542L73.2595 109.916C73.2597 109.915 73.2603 109.915 73.2609 109.915V109.915C73.2615 109.915 73.2618 109.916 73.2617 109.916L67.4673 131.541C63.6745 145.696 72.0746 160.245 86.2295 164.038C100.338 167.819 114.838 159.486 118.689 145.416C114.988 159.526 123.38 173.993 137.488 177.773C151.643 181.566 166.192 173.166 169.985 159.011L170.681 156.415Z" fill="#271A58"/>
<path d="M195.523 63.7008L193.591 63.1832L195.523 63.7008ZM144.302 49.8264L142.367 49.3191L146.231 50.3544L144.302 49.8264ZM67.4649 131.542L69.3967 132.059L67.4649 131.542ZM118.689 145.416L120.623 145.923L116.76 144.888L118.689 145.416ZM6.58608 84.6309L4.89401 85.6972L6.58608 84.6309ZM194.828 66.2946L196.76 66.8122L194.828 66.2946ZM16.8263 46.4137L15.8941 44.6443L16.8263 46.4137ZM73.2595 109.916L71.3277 109.398L73.2595 109.916ZM194.912 135.095L193.98 133.325L194.912 135.095ZM206.457 117.706C204.583 124.699 199.921 130.196 193.98 133.325L195.844 136.864C202.73 133.238 208.147 126.855 210.321 118.741L206.457 117.706ZM203.461 97.9399C207.042 103.62 208.331 110.713 206.457 117.706L210.321 118.741C212.495 110.627 210.995 102.391 206.845 95.807L203.461 97.9399ZM193.591 63.1832L192.896 65.7769L196.76 66.8122L197.455 64.2185L193.591 63.1832ZM176.243 33.1356C189.331 36.6425 197.098 50.0953 193.591 63.1832L197.455 64.2185C201.534 48.9967 192.501 33.3506 177.279 29.2719L176.243 33.1356ZM146.231 50.3544C149.791 37.3447 163.199 29.6403 176.243 33.1356L177.279 29.2719C162.107 25.2066 146.514 34.1672 142.373 49.2985L146.231 50.3544ZM124.985 19.4005C138.03 22.8959 145.789 36.2721 142.367 49.3191L146.236 50.3338C150.216 35.1591 141.192 19.6021 126.02 15.5368L124.985 19.4005ZM94.9374 36.7486C98.4443 23.6606 111.897 15.8936 124.985 19.4005L126.02 15.5368C110.799 11.4582 95.1524 20.4915 91.0737 35.7133L94.9374 36.7486ZM89.1436 58.3715L94.9374 36.7486L91.0737 35.7133L85.2799 57.3362L89.1436 58.3715ZM91.0713 35.7138L85.2778 57.3356L89.1415 58.3709L94.935 36.749L91.0713 35.7138ZM73.7233 5.66616C86.8113 9.17306 94.5782 22.6258 91.0713 35.7138L94.935 36.749C99.0137 21.5272 89.9804 5.88112 74.7586 1.80246L73.7233 5.66616ZM43.6757 23.0142C47.1826 9.92624 60.6354 2.15926 73.7233 5.66616L74.7586 1.80246C59.5368 -2.27621 43.8907 6.75711 39.812 21.9789L43.6757 23.0142ZM42.9787 25.6153L43.6757 23.0142L39.812 21.9789L39.115 24.5801L42.9787 25.6153ZM5.28377 63.8014C7.15726 56.8094 11.8191 51.3125 17.7586 48.1832L15.8941 44.6443C9.00982 48.2714 3.59392 54.6532 1.42006 62.7661L5.28377 63.8014ZM8.27816 83.5647C4.69904 77.8848 3.41027 70.7934 5.28377 63.8014L1.42006 62.7661C-0.7538 70.8791 0.745595 79.1139 4.89401 85.6972L8.27816 83.5647ZM18.1374 118.324L18.8355 115.719L14.9718 114.684L14.2737 117.289L18.1374 118.324ZM35.4854 148.372C22.3975 144.865 14.6305 131.412 18.1374 118.324L14.2737 117.289C10.1951 132.511 19.2284 148.157 34.4501 152.236L35.4854 148.372ZM65.533 131.024C62.0261 144.112 48.5734 151.879 35.4854 148.372L34.4501 152.236C49.6719 156.314 65.3181 147.281 69.3967 132.059L65.533 131.024ZM71.3277 109.398L65.533 131.024L69.3967 132.059L75.1914 110.433L71.3277 109.398ZM69.3991 132.059L75.1935 110.434L71.3298 109.399L65.5354 131.023L69.3991 132.059ZM86.7471 162.106C73.6592 158.599 65.8922 145.147 69.3991 132.059L65.5354 131.023C61.4568 146.245 70.4901 161.891 85.7119 165.97L86.7471 162.106ZM116.76 144.888C113.199 157.897 99.7919 165.602 86.7471 162.106L85.7119 165.97C100.884 170.035 116.477 161.075 120.618 145.943L116.76 144.888ZM138.006 175.841C124.961 172.346 117.202 158.97 120.623 145.923L116.754 144.908C112.775 160.083 121.798 175.64 136.97 179.705L138.006 175.841ZM168.053 158.493C164.546 171.581 151.094 179.348 138.006 175.841L136.97 179.705C152.192 183.784 167.838 174.75 171.917 159.529L168.053 158.493ZM168.749 155.897L168.053 158.493L171.917 159.529L172.613 156.932L168.749 155.897ZM4.89401 85.6972C7.84503 90.3803 11.0233 95.2244 13.1502 100.21C15.2675 105.173 16.2228 110.015 14.9718 114.684L18.8355 115.719C20.4125 109.834 19.1215 104.013 16.8293 98.6401C14.5467 93.2897 11.1522 88.1256 8.27816 83.5647L4.89401 85.6972ZM72.7433 111.847C71.6769 111.561 71.0441 110.465 71.3298 109.399L75.1935 110.434C75.4796 109.366 74.8461 108.269 73.7785 107.983L72.7433 111.847ZM87.728 55.9228C88.7941 56.2084 89.4273 57.3043 89.1415 58.3709L85.2778 57.3356C84.9916 58.4035 85.6255 59.5005 86.6927 59.7865L87.728 55.9228ZM206.845 95.807C203.893 91.1228 200.712 86.2774 198.584 81.2906C196.465 76.3261 195.509 71.4824 196.76 66.8122L192.896 65.7769C191.319 71.6639 192.611 77.4866 194.905 82.8608C197.189 88.2126 200.586 93.3781 203.461 97.9399L206.845 95.807ZM39.115 24.5801C37.8641 29.2488 34.6156 32.9647 30.3004 36.2041C25.9658 39.4581 20.7913 42.0641 15.8941 44.6443L17.7586 48.1832C22.528 45.6703 28.0498 42.8953 32.7019 39.403C37.3733 35.8961 41.4018 31.5005 42.9787 25.6153L39.115 24.5801ZM75.1914 110.433C74.9057 111.5 73.8096 112.132 72.7433 111.847L73.7785 107.983C72.711 107.697 71.6137 108.33 71.3277 109.398L75.1914 110.433ZM85.2799 57.3362C85.5656 56.2699 86.6617 55.637 87.728 55.9228L86.6927 59.7865C87.7603 60.0725 88.8576 59.439 89.1436 58.3715L85.2799 57.3362ZM193.98 133.325C189.209 135.838 183.684 138.614 179.03 142.106C174.357 145.614 170.326 150.01 168.749 155.897L172.613 156.932C173.864 152.262 177.114 148.545 181.431 145.306C185.768 142.051 190.945 139.445 195.844 136.864L193.98 133.325Z" fill="#FF8071" mask="url(#path-1-outside-1_26_1246)"/>
</g>
</svg>
