<svg width="29" height="20" viewBox="0 0 29 20" fill="none" xmlns="http://www.w3.org/2000/svg">
<path d="M3.68844 19.4581C1.54195 20.698 0 19.6648 0 17.827C0 15.8705 0 10.0003 0 10.0003C0 10.0003 0 4.13012 0 2.1737C0 0.33591 1.54099 -0.697309 3.68844 0.542554C7.03156 2.47314 17.06 8.26682 17.06 8.26682C18.3934 9.03695 18.3934 10.9628 17.06 11.7329C17.06 11.7338 7.03156 17.5275 3.68844 19.4581Z" fill="#00C1FF"/>
<path d="M14.7265 19.4574C12.58 20.6972 11.038 19.664 11.038 17.8262C11.038 15.8698 11.038 9.9996 11.038 9.9996C11.038 9.9996 11.038 4.12939 11.038 2.17297C11.038 0.335178 12.579 -0.698041 14.7265 0.541821C17.9959 2.43032 27.8043 8.09676 27.8043 8.09676C29.2688 8.94246 29.2688 11.0567 27.8043 11.9024C27.8034 11.9024 17.9959 17.5689 14.7265 19.4574Z" fill="#BCEC30"/>
<mask id="mask0_26_1342" style="mask-type:alpha" maskUnits="userSpaceOnUse" x="11" y="0" width="18" height="20">
<path d="M14.7265 19.4574C12.58 20.6972 11.038 19.664 11.038 17.8262C11.038 15.8698 11.038 9.9996 11.038 9.9996C11.038 9.9996 11.038 4.12939 11.038 2.17297C11.038 0.335178 12.579 -0.698041 14.7265 0.541821C17.9959 2.43032 27.8043 8.09676 27.8043 8.09676C29.2688 8.94246 29.2688 11.0567 27.8043 11.9024C27.8034 11.9024 17.9959 17.5689 14.7265 19.4574Z" fill="#6FE4FF"/>
</mask>
<g mask="url(#mask0_26_1342)">
<g filter="url(#filter0_f_26_1342)">
<path d="M3.68893 19.4585C1.54244 20.6983 0.000488281 19.6651 0.000488281 17.8273C0.000488281 15.8709 0.000488281 10.0007 0.000488281 10.0007C0.000488281 10.0007 0.000488281 4.13049 0.000488281 2.17407C0.000488281 0.336277 1.54148 -0.696943 3.68893 0.54292C7.03205 2.47351 17.0605 8.26719 17.0605 8.26719C18.3939 9.03732 18.3939 10.9631 17.0605 11.7333C17.0605 11.7342 7.03205 17.5279 3.68893 19.4585Z" fill="#99D100"/>
</g>
</g>
<defs>
<filter id="filter0_f_26_1342" x="-1.46075" y="-1.46014" width="20.9825" height="22.9216" filterUnits="userSpaceOnUse" color-interpolation-filters="sRGB">
<feFlood flood-opacity="0" result="BackgroundImageFix"/>
<feBlend mode="normal" in="SourceGraphic" in2="BackgroundImageFix" result="shape"/>
<feGaussianBlur stdDeviation="0.730621" result="effect1_foregroundBlur_26_1342"/>
</filter>
</defs>
</svg>
